# AST/ASF file generated using VICON BodyLanguage
# -----------------------------------------------
:version 1.10
:name VICON
:units
  mass 1.0
  length 0.45
  angle deg
:documentation
   .ast/.asf automatically generated from VICON data using
   VICON BodyBuilder and BodyLanguage model FoxedUp or BRILLIANT.MOD
:root
   order TX TY TZ RX RY RZ
   axis XYZ
   position 0 0 0  
   orientation 0 0 0 
:bonedata
  begin
     id 1 
     name lhipjoint
     direction 0.528046 -0.759594 0.379717 
     length 2.39752 
     axis 0 0 0  XYZ
  end
  begin
     id 2 
     name lfemur
     direction 0.34202 -0.939693 0  
     length 7.31175  
     axis 0 0 20  XYZ
    dof rx ry rz
    limits (-160.0 20.0)
           (-70.0 70.0)
           (-60.0 70.0)
  end
  begin
     id 3 
     name ltibia
     direction 0.34202 -0.939693 0   
     length 7.52482   
     axis 0 0 20   XYZ
    dof rx
    limits (-10.0 170.0)
  end
  begin
     id 4 
     name lfoot
     direction 0.0675379 -0.185559 0.980309   
     length 2.00961   
     axis -90 7.62852e-016 20   XYZ
    dof rx rz
    limits (-45.0 90.0)
           (-70.0 20.0)
  end
  begin
     id 5 
     name ltoes
     direction 1.5352e-011 -4.22286e-011 1   
     length 1.01383   
     axis -90 7.62852e-016 20   XYZ
    dof rx
    limits (-90.0 20.0)
  end
  begin
     id 6 
     name rhipjoint
     direction -0.510274 -0.769251 0.384544   
     length 2.36742  
     axis 0 0 0  XYZ 
  end
  begin
     id 7 
     name rfemur
     direction -0.34202 -0.939693 0   
     length 7.45325   
     axis 0 0 -20   XYZ
    dof rx ry rz
    limits (-160.0 20.0)
           (-70.0 70.0)
           (-70.0 60.0)
  end
  begin
     id 8 
     name rtibia
     direction -0.34202 -0.939693 0   
     length 7.49587   
     axis 0 0 -20   XYZ
    dof rx
    limits (-10.0 170.0)
 end
 begin
     id 9 
     name rfoot
     direction -0.106475 -0.292536 0.950308   
     length 2.20898  
     axis -90 -7.62852e-016 -20   XYZ
    dof rx rz
    limits (-45.0 90.0)
           (-20.0 70.0)
  end
  begin
     id 10 
     name rtoes
     direction -1.53597e-011 -4.22023e-011 1   
     length 1.10065   
     axis -90 -7.62852e-016 -20   XYZ
    dof rx
    limits (-90.0 20.0)
  end
  begin
     id 11 
     name lowerback
     direction 0.0260024 0.998026 -0.0571652   
     length 2.11214   
     axis 0 0 0   XYZ
    dof rx ry rz
    limits (-20.0 45.0)
           (-30.0 30.0)
           (-30.0 30.0)
  end
  begin
     id 12 
     name upperback
     direction 0.0216202 0.999542 -0.0211766   
     length 2.11689   
     axis 0 0 0   XYZ
    dof rx ry rz
    limits (-20.0 45.0)
           (-30.0 30.0)
           (-30.0 30.0)
  end
  begin
     id 13 
     name thorax
     direction 0.00883312 0.999944 0.00589057   
     length 2.11821   
     axis 0 0 0   XYZ
    dof rx ry rz
    limits (-20.0 45.0)
           (-30.0 30.0)
           (-30.0 30.0)
  end
  begin
     id 14 
     name lowerneck
     direction -0.059386 0.994433 0.0870401   
     length 1.81176   
     axis 0 0 0   XYZ
    dof rx ry rz
    limits (-20.0 45.0)
           (-30.0 30.0)
           (-30.0 30.0)
  end
  begin
     id 15 
     name upperneck
     direction 0.0506457 0.97328 -0.223967   
     length 1.82382   
     axis 0 0 0   XYZ
    dof rx ry rz
    limits (-20.0 45.0)
           (-30.0 30.0)
           (-30.0 30.0)
  end
  begin
     id 16
     name head
     direction 0.0205902 0.996147 -0.0852487  
     length 1.84805  
     axis 0 0 0   XYZ
    dof rx ry rz
    limits (-20.0 45.0)
           (-30.0 30.0)
           (-30.0 30.0)
  end
  begin
     id 17 
     name lclavicle
     direction 0.949493 0.303881 -0.0782325  
     length 3.60584  
     axis 0 0 0   XYZ
    dof ry rz
    limits (-20.0 10.0)
           (0.0 20.0)
  end
  begin
     id 18 
     name lhumerus
     direction 1 -4.48965e-011 1.48782e-027   
     length 4.95681   
     axis 180 -30 -90   XYZ
    dof rx ry rz
    limits (-60.0 90.0)
           (-90.0 90.0)
           (-90.0 90.0)
  end
  begin
     id 19
     name lradius
     direction 1 -4.48952e-011 2.06528e-027   
     length 3.40915   
     axis 180 -30 -90   XYZ
    dof rx
    limits (-10.0 170.0)
  end
  begin
     id 20
     name lwrist
     direction 1 -4.48964e-011 1.28021e-027   
     length 1.70457   
     axis -1.61767e-015 90 90   XYZ
    dof ry
    limits (-180.0 0.0)
 end
  begin
     id 21 
     name lhand
     direction 1 -4.49094e-011 2.54887e-027   
     length 0.616403   
     axis -1.63363e-015 90 90   XYZ
    dof rx rz
    limits (-90.0 90.0)
           (-45.0 45.0)
  end
  begin
     id 22 
     name lfingers
     direction 1 -4.49002e-011 5.11407e-027   
     length 0.49696   
     axis -3.26723e-015 90 90   XYZ
    dof rx
    limits (0.0 90.0)
  end
  begin
     id 23
     name lthumb
     direction 0.707107 -6.34998e-011 0.707107   
     length 0.713539   
     axis -90 45 -2.25915e-014   XYZ
    dof rx rz
    limits (-45.0 45.0)
           (-45.0 45.0)
  end
  begin
     id 24 
     name rclavicle
     direction -0.937751 0.334612 -0.0930482   
     length 3.46287  
     axis 0 0 0   XYZ 
    dof ry rz
    limits (-10.0 20.0)
           (-20.0 0.0)
  end
  begin
     id 25 
     name rhumerus
     direction -1 -4.48962e-011 3.59972e-027  
     length 5.352   
     axis 180 30 90   XYZ
    dof rx ry rz
    limits (-90.0 60.0)
           (-90.0 90.0)
           (-90.0 90.0)
  end
  begin
     id 26 
     name rradius
     direction -1 -4.48987e-011 -3.76925e-027   
     length 3.43721   
     axis 180 30 90   XYZ
    dof rx
    limits (-10.0 170.0)
  end
  begin
     id 27 
     name rwrist
     direction -1 -4.48943e-011 1.28112e-027   
     length 1.7186   
     axis -1.61767e-015 -90 -90   XYZ
    dof ry
    limits (-180.0 0.0)
  end
  begin
     id 28
     name rhand
     direction -1 -4.49027e-011 2.55483e-027   
     length 0.72009   
     axis -1.63363e-015 -90 -90   XYZ
    dof rx rz
    limits (-90.0 90.0)
           (-45.0 45.0)
  end
  begin
     id 29
     name rfingers
     direction -1 -4.48827e-011 5.14506e-027   
     length 0.580555   
     axis -3.26723e-015 -90 -90   XYZ
    dof rx
    limits (0.0 90.0)
  end
  begin
     id 30
     name rthumb
     direction -0.707107 -6.34936e-011 0.707107   
     length 0.833564   
     axis -90 -45 2.25915e-014   XYZ
    dof rx rz
    limits (-45.0 45.0)
           (-45.0 45.0)
  end
:hierarchy
  begin
    root lhipjoint rhipjoint lowerback
    lhipjoint lfemur
    lfemur ltibia
    ltibia lfoot
    lfoot ltoes
    rhipjoint rfemur
    rfemur rtibia
    rtibia rfoot
    rfoot rtoes
    lowerback upperback
    upperback thorax
    thorax lowerneck lclavicle rclavicle
    lowerneck upperneck
    upperneck head
    lclavicle lhumerus
    lhumerus lradius
    lradius lwrist
    lwrist lhand lthumb
    lhand lfingers
    rclavicle rhumerus
    rhumerus rradius
    rradius rwrist
    rwrist rhand rthumb
    rhand rfingers
  end

#!OML:ASF H:\Terrain\Patient Classification 1\Terrain2\Thursday\justin.ASF
:FULLY-SPECIFIED
:DEGREES
275
root -2.73797 21.2822 -7.24183 4.90579 11.1987 -0.527082
lowerback 11.902 -1.07113 0.990118
upperback 3.17575 -1.12739 3.74309
thorax -3.28902 -0.555767 3.51366
lowerneck -15.9554 0.724091 -6.48031
upperneck 36.2763 3.21669 0.48216
head 15.2954 0.575779 1.91766
rclavicle 9.14409e-015 1.27222e-014
rhumerus -32.9158 -16.1592 -76.946
rradius 26.7917
rwrist -8.87294
rhand -20.0237 11.874
rfingers 7.12502
rthumb 6.31691 -18.0118
lclavicle 9.14409e-015 1.27222e-014
lhumerus -37.6538 7.48376 86.5583
lradius 29.3463
lwrist 0.632012
lhand -17.3938 23.6353
lfingers 7.12502
lthumb 8.85534 53.4295
rfemur -56.5241 -5.63852 20.752
rtibia 69.0902
rfoot -15.4523 3.17616
rtoes 11.34
lfemur 3.71035 -9.29313 -17.0432
ltibia 22.9139
lfoot 17.0126 -13.097
ltoes -0.216229
276
root -2.75982 21.368 -7.13954 5.20604 11.7458 -0.750593
lowerback 11.8338 -1.1454 1.35063
upperback 3.15859 -1.1792 3.83645
thorax -3.27217 -0.582438 3.41347
lowerneck -16.1507 0.736989 -6.12873
upperneck 36.2475 3.32178 0.001107
head 15.3453 0.600736 1.67422
rclavicle -3.10104e-014 9.54166e-015
rhumerus -32.5979 -16.4477 -76.7239
rradius 26.5689
rwrist -8.52374
rhand -20.0237 11.6552
rfingers 7.12502
rthumb 6.31691 -18.2306
lclavicle -3.10104e-014 9.54166e-015
lhumerus -37.5747 7.22838 86.6331
lradius 29.0869
lwrist 0.4953
lhand -17.2925 24.003
lfingers 7.12502
lthumb 8.95312 53.7931
rfemur -55.9987 -5.85808 21.2374
rtibia 68.4599
rfoot -15.9043 2.30552
rtoes 8.18892
lfemur 2.99612 -9.27266 -16.471
ltibia 22.9611
lfoot 19.9663 -12.3506
ltoes 3.42912
277
root -2.77942 21.4462 -7.03458 5.55398 12.2222 -0.665093
lowerback 11.7411 -1.22628 1.33877
upperback 3.10185 -1.28629 3.88545
thorax -3.27396 -0.634981 3.48547
lowerneck -16.1614 0.745737 -5.91962
upperneck 36.2358 3.41656 -0.388238
head 15.3564 0.615773 1.48994
rclavicle 1.98785e-014 -3.02153e-014
rhumerus -32.4119 -16.1536 -76.6199
rradius 26.6473
rwrist -8.73006
rhand -20.0238 11.8121
rfingers 7.12502
rthumb 6.31687 -18.0737
lclavicle 1.98785e-014 -3.02153e-014
lhumerus -37.6764 6.87781 86.8013
lradius 29.0381
lwrist 0.521801
lhand -17.1169 23.6725
lfingers 7.12502
lthumb 9.12255 53.4552
rfemur -55.4423 -6.07061 21.3421
rtibia 67.7977
rfoot -16.3224 1.58055
rtoes 4.52046
lfemur 2.22637 -9.24248 -16.2738
ltibia 23.2259
lfoot 22.4475 -11.3986
ltoes 6.82432
278
root -2.79997 21.5281 -6.93586 5.94583 12.5808 -0.649229
lowerback 11.6098 -1.22562 1.43731
upperback 2.99294 -1.27272 3.9251
thorax -3.31769 -0.627891 3.46773
lowerneck -15.9966 0.655476 -6.17112
upperneck 36.1839 3.28539 -0.210176
head 15.2882 0.556695 1.5838
rclavicle -2.8625e-014 -2.22639e-014
rhumerus -32.3262 -15.6456 -76.5272
rradius 26.814
rwrist -9.24798
rhand -20.0199 12.1599
rfingers 7.12502
rthumb 6.32062 -17.7258
lclavicle -2.8625e-014 -2.22639e-014
lhumerus -37.7204 6.31816 87.0998
lradius 28.8243
lwrist 0.589807
lhand -17.4172 23.0868
lfingers 7.12502
lthumb 8.83281 52.8819
rfemur -54.953 -6.05708 21.4021
rtibia 67.0704
rfoot -16.54 1.20992
rtoes 3.86483
lfemur 1.36153 -9.39969 -16.067
ltibia 23.6831
lfoot 24.1522 -10.9772
ltoes 7.65574
279
root -2.82322 21.6097 -6.84461 6.157 13.0604 -0.989044
lowerback 11.5721 -1.25534 1.87095
upperback 2.98698 -1.2552 4.06502
thorax -3.31022 -0.620658 3.36611
lowerneck -16.1615 0.528693 -6.53997
upperneck 36.2517 3.11456 0.126104
head 15.3518 0.479088 1.76493
rclavicle -7.95139e-016 -1.51076e-014
rhumerus -31.9252 -15.7491 -76.2843
rradius 26.6804
rwrist -9.19369
rhand -19.9238 12.3664
rfingers 7.12502
rthumb 6.41343 -17.5165
lclavicle -7.95139e-016 -1.51076e-014
lhumerus -37.5261 5.77831 87.4113
lradius 28.6604
lwrist 0.735715
lhand -17.7366 22.6778
lfingers 7.12502
lthumb 8.52458 52.4857
rfemur -54.3059 -5.88592 21.6428
rtibia 66.2455
rfoot -16.5875 1.33643
rtoes 8.89817
lfemur 0.610036 -9.52607 -15.4735
ltibia 24.2093
lfoot 25.5108 -10.6532
ltoes 8.46468
280
root -2.84292 21.6815 -6.75737 6.33215 13.6122 -0.911279
lowerback 11.6348 -1.28949 1.85177
upperback 3.01383 -1.29717 4.1211
thorax -3.31291 -0.640821 3.44337
lowerneck -16.2664 0.457674 -6.65038
upperneck 36.2702 3.03158 0.202984
head 15.3861 0.439914 1.8049
rclavicle -1.39149e-014 4.05521e-014
rhumerus -31.3481 -15.8257 -76.092
rradius 26.5158
rwrist -9.28915
rhand -20.0109 12.172
rfingers 7.12502
rthumb 6.32927 -17.7134
lclavicle -1.39149e-014 4.05521e-014
lhumerus -37.4402 5.17309 87.7156
lradius 28.8004
lwrist 1.01115
lhand -17.3452 22.6778
lfingers 7.12502
lthumb 8.90221 52.47
rfemur -53.5631 -5.90031 21.3997
rtibia 65.4773
rfoot -16.5639 1.66619
rtoes 14.379
lfemur -0.00949557 -9.47584 -15.3707
ltibia 24.7911
lfoot 26.4744 -10.1732
ltoes 9.60765
281
root -2.85825 21.7744 -6.6699 6.53191 14.1104 -0.759211
lowerback 11.662 -1.28857 1.79766
upperback 2.97287 -1.29725 4.14816
thorax -3.36879 -0.639842 3.50429
lowerneck -16.0487 0.41467 -6.60649
upperneck 36.2095 2.98184 0.0811828
head 15.3125 0.414874 1.73381
rclavicle -8.34896e-015 4.85035e-014
rhumerus -31.2084 -15.0411 -76.079
rradius 27.0437
rwrist -10.1667
rhand -19.9317 12.4747
rfingers 7.12502
rthumb 6.40573 -17.4084
lclavicle -8.34896e-015 4.85035e-014
lhumerus -37.4883 4.80323 87.9194
lradius 28.9077
lwrist 0.949912
lhand -16.7506 22.9325
lfingers 7.12502
lthumb 9.47594 52.6995
rfemur -52.8728 -6.04873 21.32
rtibia 64.7462
rfoot -16.5966 1.09913
rtoes 12.4802
lfemur -0.636176 -9.65163 -15.4085
ltibia 25.5019
lfoot 26.937 -9.5588
ltoes 11.4473
282
root -2.87514 21.8701 -6.58387 6.70594 14.61 -0.606212
lowerback 11.7456 -1.25169 1.87142
upperback 2.98429 -1.23496 4.1482
thorax -3.40727 -0.608656 3.45603
lowerneck -16.1559 0.244059 -6.84388
upperneck 36.2924 2.80893 0.134539
head 15.384 0.315974 1.77199
rclavicle -1.19271e-014 2.38542e-014
rhumerus -31.1981 -14.6912 -75.8484
rradius 27.7619
rwrist -10.3815
rhand -19.4699 13.7961
rfingers 7.12502
rthumb 6.8516 -16.0731
lclavicle -1.19271e-014 2.38542e-014
lhumerus -37.2384 4.37988 88.201
lradius 28.819
lwrist 0.874207
lhand -16.8546 21.9976
lfingers 7.12502
lthumb 9.37566 51.7691
rfemur -52.1765 -6.09812 21.2331
rtibia 63.9663
rfoot -16.6762 0.314379
rtoes 9.73827
lfemur -1.24513 -9.9731 -15.4657
ltibia 26.3528
lfoot 26.9237 -8.76434
ltoes 14.0651
283
root -2.89741 21.9494 -6.5037 6.8818 15.2837 -0.429904
lowerback 11.8711 -1.22866 1.9403
upperback 3.01231 -1.19062 4.12877
thorax -3.45073 -0.586221 3.3934
lowerneck -16.4985 -0.0207733 -7.15047
upperneck 36.4879 2.49603 0.324461
head 15.5703 0.161917 1.86093
rclavicle -2.38542e-015 -1.74931e-014
rhumerus -30.8759 -14.888 -75.5471
rradius 27.9447
rwrist -10.3117
rhand -19.6381 13.8382
rfingers 7.12502
rthumb 6.68914 -16.0361
lclavicle -2.38542e-015 -1.74931e-014
lhumerus -36.8017 3.7777 88.5319
lradius 28.6949
lwrist 0.797424
lhand -16.8826 21.1462
lfingers 7.12502
lthumb 9.34862 50.9189
rfemur -51.4604 -6.35223 21.1273
rtibia 63.1161
rfoot -16.6763 -0.258779
rtoes 8.53818
lfemur -1.95826 -9.82487 -15.481
ltibia 27.2439
lfoot 26.3313 -9.15494
ltoes 12.1906
